<?xml version="1.0" encoding="utf-8"?>
<!-- Generator: Adobe Illustrator 16.0.0, SVG Export Plug-In . SVG Version: 6.00 Build 0)  -->
<!DOCTYPE svg PUBLIC "-//W3C//DTD SVG 1.1//EN" "http://www.w3.org/Graphics/SVG/1.1/DTD/svg11.dtd">
<svg version="1.1" id="Layer_1" xmlns="http://www.w3.org/2000/svg" xmlns:xlink="http://www.w3.org/1999/xlink" x="0px" y="0px"
	 width="178px" height="30px" viewBox="0 0 178 30" enable-background="new 0 0 178 30" xml:space="preserve">
<g>
	<g>
		<polygon fill="#00AEEF" points="24.944,28.893 24.683,28.893 22.5,28.893 21.581,28.893 21.32,28.893 21.264,28.639 16.477,7.264 
			16.388,6.87 16.794,6.87 20.692,6.87 20.954,6.87 21.008,7.125 23.922,20.73 26.969,7.122 27.027,6.87 27.288,6.87 29.469,6.87 
			29.875,6.87 29.788,7.264 25,28.639 		"/>
		<path fill="#F99D1C" d="M45.35,28.893h-0.326h-5.729c-3.133-0.029-5.695-2.355-5.71-5.186V12.129
			c0.021-2.928,2.657-5.307,5.884-5.307c3.221,0,5.859,2.379,5.881,5.301v6.755v0.324h-0.326h-6.89v4.502
			c0,1.541,1.392,2.779,3.105,2.779c0,0,0.009,0,0.021,0h2.252h1.512h0.326v0.326v1.756V28.893z M38.134,16.795h2.668v-6.498
			c0-0.646-0.597-1.172-1.333-1.172c-0.737,0-1.335,0.525-1.335,1.172V16.795z"/>
		<path fill="#EF3E42" d="M12.27,28.893h-0.328H6.213c-3.135-0.029-5.695-2.355-5.711-5.186V12.129
			c0.022-2.928,2.66-5.307,5.883-5.307c3.224,0,5.863,2.379,5.885,5.301v6.755v0.324h-0.328h-6.89v4.502
			c0,1.541,1.392,2.779,3.106,2.779c0,0,0.008,0,0.019,0h2.255h1.51h0.328v0.326v1.756V28.893z M5.052,16.795h2.666v-6.498
			c0-0.646-0.596-1.172-1.333-1.172c-0.734,0-1.333,0.525-1.333,1.172V16.795z"/>
		<path fill="#8DC63F" d="M54.783,28.893h-0.325h-3.9h-0.326v-0.326V12.129c0-2.943,2.641-5.338,5.885-5.338h3.996h0.325V7.12v1.756
			V9.2h-0.325h-3.988c-0.738,0-1.341,0.521-1.341,1.162v18.205V28.893z"/>
		<path fill="#8DC63F" d="M68.485,28.893h-0.326h-3.896h-0.326v-0.326V12.129c0-2.943,2.64-5.338,5.883-5.338h3.994h0.324V7.12
			v1.756V9.2h-0.324h-3.986c-0.74,0-1.342,0.521-1.342,1.162v18.205V28.893z"/>
		<path fill="#EF3E42" d="M114.248,28.893h-0.326h-3.898h-0.326v-0.326V10.397c0-0.643-0.879-1.168-1.619-1.168H106.9v19.337v0.326
			h-0.324h-3.898h-0.326v-0.326V0.471V0.147h0.326h3.898h0.324v0.324v6.352h1.186c3.246,0,6.162,2.393,6.162,5.336v16.408V28.893z"
			/>
		<path fill="#F99D1C" d="M83.593,28.893c-3.169,0-5.761-2.324-5.774-5.186V7.12V6.792h0.324h3.898h0.326V7.12v16.587
			c-0.005,1.271,0.961,2.375,2.344,2.691l0.252,0.057v0.26v1.76v0.275l-0.267,0.047C84.327,28.859,83.957,28.893,83.593,28.893
			 M80.09,4.977c-1.456,0-2.642-1.084-2.642-2.416c0-1.33,1.186-2.414,2.642-2.414c1.46,0,2.645,1.084,2.645,2.414
			C82.735,3.893,81.55,4.977,80.09,4.977"/>
		<path fill="#00AEEF" d="M98.711,28.893h-0.324h-3.994c-3.246,0-5.881-2.395-5.881-5.336V12.159c0-2.943,2.635-5.336,5.881-5.336
			h3.994h0.324v0.324v1.76v0.322h-0.324h-3.984c-0.744,0-1.346,0.525-1.346,1.164V25.32c0,0.643,0.602,1.164,1.346,1.164h3.984
			h0.324v0.326v1.756V28.893z"/>
	</g>
	<path fill="#6D6E71" d="M136.324,24.158h-1.221v1.85h-3.547c0.012-0.133,0.018-0.266,0.018-0.398c0-0.018-0.002-0.029-0.002-0.043
		v-0.635h1.859v-0.773h-4.504v0.773h1.545c0.016,0.146,0.023,0.291,0.023,0.438c0,0.217-0.018,0.428-0.047,0.639h-2.562v0.773h2.385
		c-0.287,0.891-0.844,1.66-1.572,2.215l0.799,0.775c0.961-0.725,1.662-1.777,1.943-2.99h3.662v2.703h1.221v-2.703h2.367v-0.773
		h-2.367V24.158z M136.227,23.23c0.977-0.01,1.766-0.805,1.766-1.781v-1.318c-0.004-0.975-0.789-1.762-1.764-1.771l0,0h-5.871
		c-0.977,0.006-1.77,0.801-1.77,1.783v3.088H136.227L136.227,23.23z M129.805,20.342h0.004c0.008-0.797,0.402-1.197,1.193-1.205
		h4.58c0.793,0.008,1.189,0.412,1.195,1.217v0.055l0,0v0.002h-3.428v-0.002h-2.928v0.002h-0.617V20.342z M133.377,22.453
		L133.377,22.453h-3.572v-1.27h0.617l0,0h2.928l0,0h3.428v0.053c-0.006,0.812-0.41,1.217-1.219,1.217H133.377z M168.191,24.17
		L168.191,24.17h-0.18l0,0h-6.746v0.002c-0.012,0-0.02-0.002-0.027-0.002c-0.982,0-1.779,0.793-1.785,1.775l0,0v3.537h1.219l0,0
		h4.531l0,0h2.992l0,0c0.979-0.008,1.768-0.801,1.768-1.783v-1.756C169.957,24.969,169.168,24.178,168.191,24.17 M168.744,27.434
		L168.744,27.434v0.035v0.004c0,0.822-0.404,1.234-1.219,1.234h-6.854v-1.713h8.072V27.434z M168.744,26.219v0.002h-8.072v-0.057
		c0.008-0.812,0.41-1.217,1.219-1.217h5.635c0.812,0,1.215,0.408,1.219,1.227l0,0v0.006v0.006V26.219z M167.514,23.23
		c0.979-0.01,1.768-0.803,1.768-1.781v-1.318c-0.006-0.975-0.791-1.762-1.764-1.771l0,0h-5.602
		c-0.977,0.006-1.766,0.799-1.768,1.775l0,0v3.096H167.514L167.514,23.23z M161.365,20.342L161.365,20.342
		c0.012-0.797,0.406-1.197,1.193-1.205h4.309c0.795,0.008,1.189,0.412,1.195,1.215v0.059h-3.289v-0.002h-2.791v0.002h-0.617V20.342z
		 M164.799,22.453L164.799,22.453h-3.434v-1.27h0.617l0,0h2.791l0,0h3.289v0.053c-0.006,0.812-0.408,1.217-1.217,1.217H164.799z
		 M153.816,27.768l0.443-5.053c0.08-0.971-0.635-1.76-1.607-1.771h-3.279l0.078-0.869h-1.221l-0.537,6.098h-0.701l-0.068,0.779
		h5.746l-0.068,0.816H153.816z M149.305,21.721h2.607c0.814,0,1.18,0.41,1.107,1.23c0,0.014-0.002,0.025-0.004,0.039h0.004
		l-0.049,0.559h-3.83L149.305,21.721z M148.91,26.172l0.164-1.848h3.826l-0.16,1.848H148.91z M146.67,28.93h8.621v-0.771h-8.621
		V28.93z M154.646,18.914h-7.742v0.775h7.742V18.914z M146.949,21.619h-1.367v-3.258h-1.08v11.123h1.08v-7.092h1.367V21.619z
		 M142.602,25.514h0.818l0.398-4.553h-0.816L142.602,25.514z"/>
	<path fill="#6D6E71" d="M134.621,0.506l-1.697,8.947c-0.17,0.908-0.342,2.125-0.377,2.914h-1.061l0.102-1.303h-0.035
		c-0.41,0.857-1.184,1.439-1.988,1.439c-1.045,0-1.678-0.977-1.678-2.486c0-2.828,1.49-6.084,3.924-6.084
		c0.328,0,0.67,0.137,0.875,0.309l0.703-3.736H134.621z M132.445,5.323c-0.156-0.225-0.412-0.377-0.771-0.377
		c-1.594,0-2.52,3.137-2.52,4.834c0,0.977,0.223,1.662,0.908,1.662c0.6,0,1.404-0.756,1.732-2.398L132.445,5.323z"/>
	<path fill="#6D6E71" d="M141.582,4.071l-1.027,5.469c-0.223,1.199-0.309,2.158-0.379,2.828h-1.111l0.117-1.303h-0.033
		c-0.635,1.029-1.422,1.439-2.211,1.439c-0.994,0-1.404-0.807-1.404-1.697c0-0.463,0.051-0.873,0.135-1.318l1.029-5.418h1.219
		l-0.979,5.211c-0.084,0.48-0.137,0.875-0.137,1.303c0,0.514,0.205,0.857,0.703,0.857c0.822,0,1.678-1.115,1.953-2.588l0.893-4.783
		H141.582z"/>
	<path fill="#6D6E71" d="M146.184,2.133l-0.396,1.938h1.578l-0.189,0.961h-1.559l-0.891,4.73c-0.088,0.43-0.121,0.822-0.121,1.045
		c0,0.395,0.152,0.617,0.566,0.617c0.221,0,0.357,0,0.514-0.033l-0.104,0.961c-0.291,0.102-0.617,0.117-0.891,0.117
		c-0.875,0-1.389-0.514-1.389-1.318c0-0.328,0.033-0.688,0.17-1.354l0.908-4.766h-0.992l0.17-0.961h1.012l0.26-1.406L146.184,2.133z
		"/>
	<path fill="#6D6E71" d="M150.225,4.071l0.273,4.646c0.035,0.754,0.053,1.234,0.088,2.057h0.033c0.225-0.721,0.463-1.354,0.736-2.09
		l1.715-4.613h1.27l-2.777,6.736c-0.756,1.852-1.629,3.395-2.725,4.338c-0.498,0.41-0.979,0.719-1.287,0.822l-0.496-1.047
		c0.361-0.17,0.805-0.426,1.234-0.787c0.514-0.43,1.08-1.182,1.336-1.799c0.068-0.172,0.088-0.291,0.068-0.465l-0.736-7.799H150.225
		z"/>
	<path fill="#6D6E71" d="M155.461,12.368l1.404-7.32h-1.027l0.17-0.977h1.049l0.102-0.498c0.17-0.924,0.514-1.867,1.146-2.502
		c0.447-0.428,1.047-0.701,1.75-0.701c0.395,0,0.719,0.068,0.873,0.154L160.637,1.5c-0.172-0.053-0.342-0.088-0.635-0.088
		c-0.941,0-1.49,1.15-1.66,2.264l-0.07,0.395h1.578l-0.172,0.977H158.1l-1.422,7.32H155.461z"/>
	<path fill="#6D6E71" d="M160.201,12.368l1.045-5.572c0.205-1.113,0.307-2.105,0.359-2.725h1.08
		c-0.016,0.445-0.051,0.893-0.137,1.561h0.053c0.514-1.029,1.232-1.697,2.072-1.697c0.086,0,0.154,0.016,0.223,0.016l-0.238,1.305
		c-0.035,0-0.104-0.018-0.156-0.018c-1.096,0-2.021,1.543-2.262,2.777l-0.822,4.354H160.201z"/>
	<path fill="#6D6E71" d="M169.818,11.956c-0.598,0.326-1.232,0.514-1.953,0.514c-1.748,0-2.314-1.336-2.314-2.93
		c0-2.246,1.254-5.605,3.619-5.605c1.215,0,1.713,0.926,1.713,1.885c0,2.006-1.783,2.865-4.045,2.881
		c-0.033,0.24-0.088,1.164,0.049,1.662c0.193,0.703,0.619,1.08,1.271,1.08c0.65,0,1.096-0.223,1.473-0.443L169.818,11.956z
		 M169.717,5.889c0-0.566-0.238-0.893-0.738-0.893c-0.736,0-1.525,0.908-1.969,2.707c1.318-0.018,2.707-0.463,2.707-1.799V5.889z"/>
	<path fill="#6D6E71" d="M176.518,11.956c-0.6,0.326-1.232,0.514-1.955,0.514c-1.746,0-2.312-1.336-2.312-2.93
		c0-2.246,1.252-5.605,3.617-5.605c1.217,0,1.715,0.926,1.715,1.885c0,2.006-1.783,2.865-4.045,2.881
		c-0.035,0.24-0.086,1.164,0.051,1.662c0.189,0.703,0.615,1.08,1.266,1.08c0.654,0,1.1-0.223,1.479-0.443L176.518,11.956z
		 M176.416,5.889c0-0.566-0.24-0.893-0.738-0.893c-0.738,0-1.525,0.908-1.971,2.707c1.32-0.018,2.709-0.463,2.709-1.799V5.889z"/>
</g>
</svg>
