<?xml version="1.0" encoding="UTF-8" standalone="no"?>
<svg width="211px" height="36px" viewBox="0 0 211 36" version="1.1" xmlns="http://www.w3.org/2000/svg" xmlns:xlink="http://www.w3.org/1999/xlink" xmlns:sketch="http://www.bohemiancoding.com/sketch/ns">
    <!-- Generator: Sketch 3.1.1 (8761) - http://www.bohemiancoding.com/sketch -->
    <title>Imported Layers</title>
    <desc>Created with Sketch.</desc>
    <defs></defs>
    <g id="Page-1" stroke="none" stroke-width="1" fill="none" fill-rule="evenodd" sketch:type="MSPage">
        <g id="Imported-Layers" sketch:type="MSLayerGroup" transform="translate(1.000000, 1.000000)" fill="#FFFFFF">
            <path d="M29.042,34.612 L24.686,34.612 L18.862,8.6 L18.754,8.125 L24.245,8.125 L24.312,8.435 L27.816,24.795 L31.479,8.429 L31.548,8.125 L34.976,8.125 L34.869,8.6 L29.112,34.304 L29.042,34.612" id="Fill-1" sketch:type="MSShapeGroup"></path>
            <path d="M53.584,34.612 L46.301,34.612 C42.53,34.576 39.452,31.78 39.435,28.377 L39.435,14.45 C39.457,10.931 42.631,8.072 46.508,8.072 C50.384,8.072 53.558,10.931 53.581,14.447 L53.583,22.569 L53.583,22.959 L44.904,22.959 L44.904,28.376 C44.904,30.222 46.577,31.716 48.64,31.716 C48.64,31.716 48.649,31.714 48.662,31.714 L51.373,31.716 L53.582,31.716 L53.582,34.612 L53.584,34.612 L53.584,34.612 Z M44.906,20.064 L48.115,20.064 L48.115,12.249 C48.115,11.472 47.394,10.84 46.509,10.84 C45.624,10.84 44.905,11.472 44.905,12.249 L44.905,20.064 L44.906,20.064 L44.906,20.064 Z" id="Fill-2" sketch:type="MSShapeGroup"></path>
            <path d="M13.801,34.612 L6.521,34.612 C2.75,34.576 -0.329,31.78 -0.347,28.377 L-0.347,14.45 C-0.321,10.931 2.85,8.072 6.728,8.072 C10.603,8.072 13.777,10.931 13.801,14.447 L13.801,22.959 L5.123,22.959 L5.123,28.376 C5.123,30.222 6.799,31.716 8.859,31.716 C8.859,31.716 8.868,31.714 8.88,31.714 L11.59,31.716 L13.799,31.716 L13.799,34.612 L13.801,34.612 L13.801,34.612 Z M5.123,20.064 L8.33,20.064 L8.33,12.249 C8.33,11.472 7.613,10.84 6.727,10.84 C5.841,10.84 5.123,11.472 5.123,12.249 L5.123,20.064 L5.123,20.064 Z" id="Fill-3" sketch:type="MSShapeGroup"></path>
            <path d="M64.929,34.612 L59.455,34.612 L59.455,14.45 C59.455,10.912 62.63,8.033 66.53,8.033 L71.727,8.033 L71.727,10.928 L66.541,10.928 C65.653,10.928 64.929,11.557 64.929,12.327 L64.929,34.612" id="Fill-4" sketch:type="MSShapeGroup"></path>
            <path d="M81.404,34.612 L75.936,34.612 L75.936,14.45 C75.936,10.912 79.109,8.033 83.007,8.033 L88.202,8.033 L88.202,10.928 L83.018,10.928 C82.126,10.928 81.403,11.557 81.403,12.327 L81.403,34.612 L81.404,34.612" id="Fill-5" sketch:type="MSShapeGroup"></path>
            <path d="M136.436,34.61 L130.964,34.61 L130.964,12.365 C130.964,11.593 129.909,10.965 129.017,10.965 L127.6,10.965 L127.6,34.61 L122.13,34.61 L122.13,0.042 L127.6,0.042 L127.6,8.071 L129.028,8.071 C132.929,8.071 136.435,10.948 136.435,14.486 L136.435,34.61 L136.436,34.61" id="Fill-6" sketch:type="MSShapeGroup"></path>
            <path d="M99.573,34.612 C95.761,34.612 92.645,31.814 92.629,28.377 L92.629,8.033 L98.097,8.033 L98.097,28.376 C98.095,29.905 99.254,31.233 100.92,31.612 L101.223,31.681 L101.223,34.439 L100.9,34.496 C100.458,34.572 100.01,34.612 99.573,34.612 M95.362,5.852 C93.609,5.852 92.183,4.549 92.183,2.947 C92.183,1.345 93.609,0.042 95.362,0.042 C97.116,0.042 98.541,1.345 98.541,2.947 C98.541,4.549 97.116,5.852 95.362,5.852" id="Fill-7" sketch:type="MSShapeGroup"></path>
            <path d="M117.754,34.612 L112.559,34.612 C108.658,34.61 105.487,31.733 105.487,28.192 L105.487,14.487 C105.487,10.949 108.658,8.072 112.559,8.072 L117.754,8.072 L117.754,10.965 L112.571,10.965 C111.679,10.965 110.953,11.593 110.953,12.364 L110.953,30.317 C110.953,31.088 111.68,31.715 112.571,31.715 L117.754,31.715 L117.754,34.612" id="Fill-8" sketch:type="MSShapeGroup"></path>
            <path d="M160.204,28.249 L158.75,28.249 L158.75,30.459 L154.516,30.459 C154.529,30.3 154.535,30.142 154.535,29.981 L154.535,29.93 L154.535,29.175 L156.753,29.175 L156.753,28.251 L151.378,28.251 L151.378,29.175 L153.222,29.175 C153.24,29.347 153.248,29.52 153.248,29.696 C153.248,29.955 153.229,30.208 153.195,30.458 L150.133,30.458 L150.133,31.381 L152.981,31.381 C152.637,32.443 151.974,33.362 151.106,34.026 L152.057,34.951 C153.204,34.085 154.041,32.829 154.376,31.382 L158.75,31.382 L158.75,34.609 L160.204,34.609 L160.204,31.382 L163.031,31.382 L163.031,30.459 L160.204,30.459 L160.204,28.249 L160.204,28.249 Z M160.089,27.142 C161.255,27.131 162.196,26.184 162.196,25.015 L162.196,23.444 C162.192,22.281 161.253,21.34 160.091,21.33 L160.091,21.329 L153.083,21.329 C151.915,21.337 150.972,22.286 150.972,23.457 L150.972,27.144 L160.089,27.142 L160.089,27.142 Z M152.424,23.696 L152.427,23.696 C152.438,22.744 152.909,22.266 153.852,22.257 L159.32,22.257 C160.265,22.267 160.738,22.749 160.745,23.71 L160.745,23.774 L160.747,23.774 L160.747,23.776 L156.654,23.776 L156.654,23.774 L153.16,23.774 L153.16,23.776 L152.425,23.776 L152.425,23.696 L152.424,23.696 L152.424,23.696 Z M156.688,26.215 L156.688,26.213 L152.423,26.213 L152.423,24.699 L160.743,24.699 L160.743,24.763 C160.736,25.73 160.256,26.214 159.289,26.214 L156.688,26.214 L156.688,26.215 L156.688,26.215 Z M198.24,28.265 L198.24,28.265 L198.024,28.264 L198.024,28.265 L189.973,28.265 L189.973,28.267 C189.96,28.266 189.952,28.265 189.939,28.265 C188.768,28.265 187.816,29.212 187.81,30.383 L187.81,34.605 L198.243,34.605 C199.409,34.596 200.353,33.647 200.353,32.477 L200.353,30.381 C200.348,29.217 199.405,28.274 198.24,28.265 L198.24,28.265 Z M198.901,32.159 L198.901,32.206 C198.901,33.189 198.418,33.679 197.447,33.679 L189.266,33.679 L189.266,31.637 L198.901,31.637 L198.901,32.159 L198.901,32.159 Z M198.901,30.712 L198.901,30.714 L189.266,30.714 L189.266,30.646 C189.272,29.676 189.753,29.194 190.717,29.194 L197.446,29.194 C198.414,29.194 198.895,29.68 198.9,30.656 L198.9,30.712 L198.901,30.712 L198.901,30.712 Z M197.432,27.142 C198.599,27.131 199.541,26.184 199.541,25.016 L199.541,23.444 C199.534,22.281 198.596,21.34 197.434,21.33 L197.434,21.329 L190.75,21.329 C189.585,21.337 188.643,22.284 188.641,23.451 L188.64,23.451 L188.64,27.143 L197.432,27.142 L197.432,27.142 Z M190.093,23.696 L190.093,23.696 C190.107,22.744 190.578,22.266 191.519,22.257 L196.661,22.257 C197.607,22.267 198.081,22.749 198.087,23.708 L198.087,23.776 L194.161,23.776 L194.161,23.774 L190.829,23.774 L190.829,23.776 L190.094,23.776 L190.094,23.696 L190.093,23.696 L190.093,23.696 Z M194.192,26.215 L194.192,26.213 L190.092,26.213 L190.092,24.699 L198.085,24.699 L198.085,24.764 C198.079,25.73 197.598,26.214 196.633,26.214 L194.192,26.214 L194.192,26.215 L194.192,26.215 Z M181.084,32.559 L181.611,26.528 C181.708,25.369 180.853,24.426 179.694,24.413 L175.779,24.413 L175.871,23.376 L174.417,23.376 L173.773,30.654 L172.939,30.654 L172.855,31.583 L179.714,31.583 L179.631,32.56 L181.084,32.56 L181.084,32.559 L181.084,32.559 Z M175.697,25.339 L178.809,25.339 C179.781,25.339 180.217,25.828 180.132,26.811 C180.131,26.827 180.127,26.841 180.126,26.858 L180.13,26.858 L180.07,27.523 L175.502,27.523 L175.697,25.339 L175.697,25.339 Z M175.227,30.654 L175.421,28.448 L179.989,28.448 L179.797,30.654 L175.227,30.654 L175.227,30.654 Z M172.554,33.946 L182.845,33.946 L182.845,33.024 L172.554,33.024 L172.554,33.946 Z M172.833,22.917 L182.072,22.917 L182.072,21.992 L172.833,21.992 L172.833,22.917 Z M172.888,25.219 L171.254,25.219 L171.254,21.331 L169.965,21.331 L169.965,34.607 L171.254,34.607 L171.254,26.141 L172.888,26.141 L172.888,25.219 L172.888,25.219 Z M167.698,29.868 L168.674,29.868 L169.15,24.434 L168.176,24.434 L167.698,29.868 L167.698,29.868 Z" id="Fill-9" sketch:type="MSShapeGroup"></path>
            <path d="M158.174,0.02 L156.148,10.7 C155.944,11.783 155.74,13.236 155.698,14.178 L154.43,14.178 L154.551,12.623 L154.511,12.623 C154.02,13.647 153.1,14.341 152.137,14.341 C150.891,14.341 150.134,13.174 150.134,11.374 C150.134,7.999 151.914,4.111 154.818,4.111 C155.209,4.111 155.617,4.275 155.863,4.48 L156.702,0.02 L158.174,0.02 L158.174,0.02 Z M155.575,5.77 C155.39,5.502 155.084,5.319 154.654,5.319 C152.752,5.319 151.647,9.063 151.647,11.088 C151.647,12.255 151.914,13.073 152.73,13.073 C153.447,13.073 154.408,12.172 154.797,10.209 L155.575,5.77 L155.575,5.77 Z" id="Fill-10" sketch:type="MSShapeGroup"></path>
            <path d="M166.48,4.275 L165.252,10.802 C164.986,12.233 164.884,13.379 164.803,14.178 L163.474,14.178 L163.616,12.622 L163.575,12.622 C162.818,13.85 161.879,14.34 160.937,14.34 C159.751,14.34 159.259,13.378 159.259,12.314 C159.259,11.762 159.321,11.271 159.422,10.74 L160.65,4.274 L162.103,4.274 L160.937,10.493 C160.835,11.067 160.774,11.537 160.774,12.048 C160.774,12.661 161.018,13.071 161.612,13.071 C162.593,13.071 163.616,11.74 163.944,9.982 L165.008,4.273 L166.48,4.273 L166.48,4.275" id="Fill-11" sketch:type="MSShapeGroup"></path>
            <path d="M171.971,1.963 L171.499,4.275 L173.383,4.275 L173.156,5.421 L171.294,5.421 L170.232,11.068 C170.129,11.579 170.089,12.049 170.089,12.316 C170.089,12.786 170.272,13.053 170.763,13.053 C171.028,13.053 171.193,13.053 171.378,13.012 L171.253,14.158 C170.905,14.282 170.517,14.301 170.191,14.301 C169.146,14.301 168.534,13.688 168.534,12.727 C168.534,12.336 168.572,11.908 168.737,11.11 L169.822,5.423 L168.635,5.423 L168.838,4.277 L170.045,4.277 L170.355,2.599 L171.971,1.963" id="Fill-12" sketch:type="MSShapeGroup"></path>
            <path d="M176.795,4.275 L177.124,9.82 C177.166,10.721 177.185,11.293 177.226,12.275 L177.268,12.275 C177.535,11.415 177.819,10.659 178.147,9.78 L180.195,4.275 L181.709,4.275 L178.394,12.315 C177.493,14.525 176.451,16.366 175.141,17.493 C174.548,17.984 173.974,18.351 173.607,18.473 L173.014,17.225 C173.443,17.02 173.974,16.714 174.486,16.285 C175.1,15.773 175.774,14.873 176.082,14.137 C176.164,13.932 176.186,13.789 176.164,13.584 L175.285,4.275 L176.795,4.275" id="Fill-13" sketch:type="MSShapeGroup"></path>
            <path d="M183.047,14.178 L184.722,5.44 L183.496,5.44 L183.699,4.274 L184.949,4.274 L185.07,3.681 C185.273,2.576 185.683,1.45 186.441,0.694 C186.973,0.181 187.689,-0.145 188.528,-0.145 C189,-0.145 189.385,-0.064 189.572,0.04 L189.222,1.206 C189.018,1.144 188.814,1.103 188.465,1.103 C187.341,1.103 186.687,2.474 186.483,3.803 L186.4,4.274 L188.283,4.274 L188.079,5.44 L186.195,5.44 L184.497,14.178 L183.047,14.178" id="Fill-14" sketch:type="MSShapeGroup"></path>
            <path d="M188.702,14.178 L189.951,7.527 C190.195,6.197 190.318,5.011 190.38,4.275 L191.668,4.275 C191.648,4.806 191.607,5.34 191.505,6.136 L191.567,6.136 C192.18,4.908 193.04,4.111 194.043,4.111 C194.145,4.111 194.227,4.132 194.309,4.132 L194.023,5.687 C193.983,5.687 193.899,5.666 193.838,5.666 C192.529,5.666 191.425,7.508 191.139,8.981 L190.157,14.178 L188.702,14.178" id="Fill-15" sketch:type="MSShapeGroup"></path>
            <path d="M200.182,13.687 C199.468,14.075 198.71,14.299 197.852,14.299 C195.765,14.299 195.088,12.704 195.088,10.801 C195.088,8.121 196.584,4.111 199.406,4.111 C200.858,4.111 201.452,5.216 201.452,6.361 C201.452,8.755 199.325,9.779 196.623,9.799 C196.584,10.085 196.52,11.19 196.684,11.782 C196.912,12.622 197.422,13.072 198.201,13.072 C198.977,13.072 199.51,12.806 199.959,12.541 L200.182,13.687 L200.182,13.687 Z M200.06,6.444 C200.06,5.769 199.776,5.381 199.18,5.381 C198.301,5.381 197.36,6.464 196.829,8.612 C198.402,8.591 200.059,8.06 200.059,6.464 L200.059,6.444 L200.06,6.444 L200.06,6.444 Z" id="Fill-16" sketch:type="MSShapeGroup"></path>
            <path d="M208.179,13.687 C207.461,14.075 206.706,14.299 205.846,14.299 C203.761,14.299 203.084,12.704 203.084,10.801 C203.084,8.121 204.578,4.111 207.402,4.111 C208.854,4.111 209.448,5.216 209.448,6.361 C209.448,8.755 207.319,9.779 204.62,9.799 C204.578,10.085 204.516,11.19 204.681,11.782 C204.907,12.622 205.417,13.072 206.194,13.072 C206.974,13.072 207.505,12.806 207.957,12.541 L208.179,13.687 L208.179,13.687 Z M208.057,6.444 C208.057,5.769 207.771,5.381 207.177,5.381 C206.295,5.381 205.356,6.464 204.823,8.612 C206.399,8.591 208.056,8.06 208.056,6.464 L208.056,6.444 L208.057,6.444 L208.057,6.444 Z" id="Fill-17" sketch:type="MSShapeGroup"></path>
        </g>
    </g>
</svg>